<svg width="21" height="21" viewBox="0 0 21 21" fill="none" xmlns="http://www.w3.org/2000/svg">
<path fill-rule="evenodd" clip-rule="evenodd" d="M17.2822 0C16.5292 0 15.8071 0.299121 15.2746 0.831559L6.63354 9.47266C6.51697 9.58924 6.43427 9.7353 6.39429 9.89523L5.4847 13.5336C5.40721 13.8436 5.49803 14.1715 5.72395 14.3974C5.94988 14.6233 6.27777 14.7141 6.58774 14.6366L10.2261 13.727C10.386 13.6871 10.5321 13.6044 10.6487 13.4878L19.2898 4.84668C19.8222 4.31424 20.1213 3.5921 20.1213 2.83912C20.1213 2.08614 19.8222 1.364 19.2898 0.831559C18.7573 0.299121 18.0352 0 17.2822 0ZM16.561 2.11791C16.7523 1.92664 17.0117 1.81918 17.2822 1.81918C17.5527 1.81918 17.8121 1.92664 18.0034 2.11791C18.1947 2.30919 18.3021 2.56862 18.3021 2.83912C18.3021 3.10963 18.1947 3.36905 18.0034 3.56033L9.54046 12.0233L7.61724 12.5041L8.09805 10.5809L16.561 2.11791Z" fill="#404040"/>
<path d="M2.72877 1.92953C2.00505 1.92953 1.31098 2.21702 0.799238 2.72877C0.287494 3.24051 0 3.93458 0 4.6583V17.3926C0 18.1163 0.287495 18.8103 0.799238 19.3221C1.31098 19.8338 2.00505 20.1213 2.72877 20.1213H15.463C16.1867 20.1213 16.8808 19.8338 17.3926 19.3221C17.9043 18.8103 18.1918 18.1163 18.1918 17.3926V11.0254C18.1918 10.5231 17.7846 10.1158 17.2822 10.1158C16.7799 10.1158 16.3726 10.5231 16.3726 11.0254V17.3926C16.3726 17.6338 16.2768 17.8652 16.1062 18.0357C15.9356 18.2063 15.7043 18.3021 15.463 18.3021H2.72877C2.48753 18.3021 2.25617 18.2063 2.08559 18.0357C1.91501 17.8652 1.81918 17.6338 1.81918 17.3926V4.6583C1.81918 4.41706 1.91501 4.1857 2.08559 4.01512C2.25617 3.84454 2.48753 3.74871 2.72877 3.74871H9.0959C9.59825 3.74871 10.0055 3.34147 10.0055 2.83912C10.0055 2.33677 9.59825 1.92953 9.0959 1.92953H2.72877Z" fill="#404040"/>
</svg>
