<svg width="20" height="17" viewBox="0 0 20 17" fill="none" xmlns="http://www.w3.org/2000/svg">
<path fill-rule="evenodd" clip-rule="evenodd" d="M0.000123043 3.02972C-2.43891e-05 3.03869 -3.92505e-05 3.04766 7.80325e-05 3.05662V13.9545C7.80325e-05 15.4566 1.22527 16.6818 2.72734 16.6818H17.2727C18.7748 16.6818 20 15.4566 20 13.9545V3.05672C20.0001 3.04768 20.0001 3.03863 19.9999 3.02958C19.9913 1.53478 18.7695 0.318222 17.2727 0.318222H2.72734C1.23053 0.318222 0.00866018 1.53485 0.000123043 3.02972ZM1.91514 2.63998C2.06549 2.34269 2.37465 2.1364 2.72734 2.1364H17.2727C17.6254 2.1364 17.9346 2.34269 18.0849 2.63998L10 8.29941L1.91514 2.63998ZM18.1818 4.79153V13.9545C18.1818 14.4524 17.7707 14.8636 17.2727 14.8636H2.72734C2.22942 14.8636 1.81825 14.4524 1.81825 13.9545V4.79153L9.47871 10.1538C9.79172 10.373 10.2083 10.373 10.5214 10.1538L18.1818 4.79153Z" fill="#757575"/>
</svg>
