<svg width="14" height="18" viewBox="0 0 14 18" fill="none" xmlns="http://www.w3.org/2000/svg">
<path fill-rule="evenodd" clip-rule="evenodd" d="M6.99998 4.83326C5.46583 4.83326 4.22216 6.07693 4.22216 7.61108C4.22216 9.14523 5.46583 10.3889 6.99998 10.3889C8.53413 10.3889 9.7778 9.14523 9.7778 7.61108C9.7778 6.07693 8.53413 4.83326 6.99998 4.83326ZM5.61107 7.61108C5.61107 6.844 6.2329 6.22217 6.99998 6.22217C7.76705 6.22217 8.38889 6.844 8.38889 7.61108C8.38889 8.37815 7.76705 8.99999 6.99998 8.99999C6.2329 8.99999 5.61107 8.37815 5.61107 7.61108Z" fill="black"/>
<path fill-rule="evenodd" clip-rule="evenodd" d="M6.61439 17.2166C6.61459 17.2167 6.61477 17.2168 6.99998 16.639L6.61439 17.2166C6.84766 17.3721 7.15193 17.3723 7.38519 17.2168L6.99998 16.639C7.38519 17.2168 7.38499 17.217 7.38519 17.2168L7.38756 17.2153L7.39218 17.2121L7.4081 17.2014C7.42162 17.1922 7.44091 17.179 7.46557 17.1619C7.5149 17.1278 7.58578 17.078 7.67514 17.0135C7.85378 16.8844 8.10669 16.6961 8.40915 16.4553C9.01298 15.9744 9.8199 15.2798 10.6292 14.4256C12.2193 12.7471 13.9445 10.3208 13.9445 7.61108C13.9445 5.76927 13.2129 4.00289 11.9105 2.70053C10.6082 1.39818 8.84179 0.666519 6.99998 0.666519C5.15817 0.666519 3.39179 1.39818 2.08943 2.70053C0.787077 4.00289 0.0554199 5.76927 0.0554199 7.61108C0.0554199 10.3208 1.78063 12.7471 3.37079 14.4256C4.18006 15.2798 4.98698 15.9744 5.59081 16.4553C5.89327 16.6961 6.14618 16.8844 6.32482 17.0135C6.41418 17.078 6.48506 17.1278 6.53439 17.1619C6.55905 17.179 6.57834 17.1922 6.59186 17.2014L6.60778 17.2121L6.6124 17.2153L6.61439 17.2166ZM3.07154 3.68264C4.11343 2.64076 5.52653 2.05543 6.99998 2.05543C8.47343 2.05543 9.88653 2.64076 10.9284 3.68264C11.9703 4.72453 12.5556 6.13763 12.5556 7.61108C12.5556 9.76255 11.1558 11.8502 9.62089 13.4704C8.86764 14.2655 8.11203 14.9164 7.54396 15.3687C7.33254 15.5371 7.14788 15.6773 6.99998 15.7866C6.85208 15.6773 6.66741 15.5371 6.456 15.3687C5.88793 14.9164 5.13232 14.2655 4.37907 13.4704C2.84417 11.8502 1.44433 9.76255 1.44433 7.61108C1.44433 6.13763 2.02966 4.72453 3.07154 3.68264Z" fill="black"/>
</svg>
