<svg width="20" height="21" viewBox="0 0 20 21" fill="none" xmlns="http://www.w3.org/2000/svg">
<path fill-rule="evenodd" clip-rule="evenodd" d="M4.54554 8.68182V5.95455C4.54554 4.50791 5.12022 3.12053 6.14314 2.0976C7.16607 1.07467 8.55345 0.5 10.0001 0.5C11.4467 0.5 12.8341 1.07467 13.857 2.0976C14.88 3.12053 15.4546 4.50791 15.4546 5.95455V8.68182H16.3637C17.87 8.68182 19.091 9.90286 19.091 11.4091V17.7727C19.091 19.279 17.87 20.5 16.3637 20.5H3.63645C2.13022 20.5 0.90918 19.279 0.90918 17.7727V11.4091C0.90918 9.90286 2.13022 8.68182 3.63645 8.68182H4.54554ZM7.42879 3.38325C8.11074 2.7013 9.03567 2.31818 10.0001 2.31818C10.9645 2.31818 11.8894 2.7013 12.5714 3.38325C13.2533 4.0652 13.6365 4.99012 13.6365 5.95455V8.68182H6.36372V5.95455C6.36372 4.99012 6.74684 4.0652 7.42879 3.38325ZM3.63645 10.5C3.13438 10.5 2.72736 10.907 2.72736 11.4091V17.7727C2.72736 18.2748 3.13438 18.6818 3.63645 18.6818H16.3637C16.8658 18.6818 17.2728 18.2748 17.2728 17.7727V11.4091C17.2728 10.907 16.8658 10.5 16.3637 10.5H3.63645Z" fill="#757575"/>
</svg>
