<svg width="87" height="87" viewBox="0 0 87 87" fill="none" xmlns="http://www.w3.org/2000/svg">
<g clip-path="url(#clip0_904_1453)">
<path d="M83.2844 31.5155L57.5977 5.82875C53.8554 2.09615 48.7856 0 43.5 0C38.2145 0 33.1447 2.09615 29.4024 5.82875L3.71567 31.5155C2.53385 32.691 1.59692 34.0892 0.959135 35.6292C0.321345 37.1693 -0.0046403 38.8205 4.99e-05 40.4874V78.1076C0.00388863 80.466 0.942962 82.7267 2.61129 84.3936C4.27963 86.0606 6.54101 86.9978 8.89942 86.9998H78.1007C80.4591 86.9978 82.7205 86.0606 84.3888 84.3936C86.0571 82.7267 86.9962 80.466 87 78.1076V40.4874C87.0047 38.8205 86.6787 37.1693 86.041 35.6292C85.4032 34.0892 84.4662 32.691 83.2844 31.5155ZM76.125 76.1248H58V64.59C58 60.9193 56.5419 57.399 53.9463 54.8035C51.3508 52.2079 47.8305 50.7498 44.1598 50.7498H42.8403C39.1696 50.7498 35.6493 52.2079 33.0538 54.8035C30.4582 57.399 29 60.9193 29 64.59V76.1248H10.8751V40.4874C10.8762 40.0067 11.0663 39.5458 11.4043 39.2041L37.091 13.5174C37.9326 12.6756 38.9318 12.0078 40.0314 11.5523C41.1311 11.0967 42.3097 10.8622 43.5 10.8622C44.6904 10.8622 45.869 11.0967 46.9687 11.5523C48.0683 12.0078 49.0675 12.6756 49.909 13.5174L75.5958 39.2041C75.9338 39.5458 76.1239 40.0067 76.125 40.4874V76.1248Z" fill="white"/>
</g>
<defs>
<clipPath id="clip0_904_1453">
<rect width="87" height="87" fill="white"/>
</clipPath>
</defs>
</svg>
