<svg width="20" height="16" viewBox="0 0 20 16" fill="none" xmlns="http://www.w3.org/2000/svg">
<path fill-rule="evenodd" clip-rule="evenodd" d="M0 3C0 1.61929 1.11929 0.5 2.5 0.5H17.5C18.8807 0.5 20 1.61929 20 3V13C20 14.3807 18.8807 15.5 17.5 15.5H2.5C1.11929 15.5 0 14.3807 0 13V3ZM1.66667 3C1.66667 2.53976 2.03976 2.16667 2.5 2.16667H17.5C17.9602 2.16667 18.3333 2.53976 18.3333 3V5.5H1.66667V3ZM18.3333 7.16667V13C18.3333 13.4602 17.9602 13.8333 17.5 13.8333H2.5C2.03976 13.8333 1.66667 13.4602 1.66667 13V7.16667H18.3333Z" fill="#404040"/>
</svg>
