<svg width="21" height="21" viewBox="0 0 21 21" fill="none" xmlns="http://www.w3.org/2000/svg">
<path fill-rule="evenodd" clip-rule="evenodd" d="M1.33333 0.916687C0.873096 0.916687 0.5 1.28978 0.5 1.75002C0.5 2.21026 0.873096 2.58335 1.33333 2.58335H3.98359L4.67662 6.04591C4.68032 6.06963 4.68501 6.09301 4.69066 6.11602L6.08263 13.0707C6.19705 13.6459 6.5102 14.1633 6.96706 14.5311C7.42183 14.8972 7.99031 15.0925 8.57386 15.0833H16.6595C17.243 15.0925 17.8115 14.8972 18.2663 14.5311C18.7233 14.1631 19.0364 13.6462 19.1507 13.0707L19.1519 13.0645L20.4852 6.07279C20.5318 5.82883 20.467 5.57684 20.3087 5.38548C20.1504 5.19412 19.915 5.08335 19.6667 5.08335H6.18369L5.48379 1.58647C5.40584 1.19701 5.06385 0.916687 4.66666 0.916687H1.33333ZM6.51727 6.75002H18.6594L17.5154 12.7487C17.4769 12.9394 17.3728 13.1107 17.2211 13.2328C17.0688 13.3554 16.8782 13.4206 16.6826 13.4168L16.6667 13.4167H8.56666L8.55069 13.4168C8.35515 13.4206 8.16452 13.3554 8.01217 13.2328C7.85982 13.1101 7.75546 12.9378 7.71736 12.746L6.51727 6.75002Z" fill="#C2C2C2"/>
<path d="M6.33333 18.4167C6.33333 17.4962 7.07952 16.75 8 16.75C8.92047 16.75 9.66666 17.4962 9.66666 18.4167C9.66666 19.3371 8.92047 20.0833 8 20.0833C7.07952 20.0833 6.33333 19.3371 6.33333 18.4167Z" fill="#C2C2C2"/>
<path d="M15.5 18.4167C15.5 17.4962 16.2462 16.75 17.1667 16.75C18.0871 16.75 18.8333 17.4962 18.8333 18.4167C18.8333 19.3371 18.0871 20.0833 17.1667 20.0833C16.2462 20.0833 15.5 19.3371 15.5 18.4167Z" fill="#C2C2C2"/>
</svg>
