<svg width="20" height="20" viewBox="0 0 20 20" fill="none" xmlns="http://www.w3.org/2000/svg">
<path d="M0.816406 19.5918V0.408163C0.816406 0.289116 0.867427 0.208333 0.969467 0.165816C1.07151 0.123299 1.16505 0.144558 1.25008 0.229592L1.98988 0.969388C2.09192 1.07143 2.21096 1.12245 2.34702 1.12245C2.48307 1.12245 2.60212 1.07143 2.70416 0.969388L3.52049 0.153061C3.62253 0.0510204 3.74158 0 3.87763 0C4.01368 0 4.13273 0.0510204 4.23477 0.153061L5.0511 0.969388C5.15314 1.07143 5.27219 1.12245 5.40824 1.12245C5.5443 1.12245 5.66334 1.07143 5.76539 0.969388L6.58171 0.153061C6.68375 0.0510204 6.8028 0 6.93885 0C7.07491 0 7.19396 0.0510204 7.296 0.153061L8.11232 0.969388C8.21436 1.07143 8.33341 1.12245 8.46947 1.12245C8.60552 1.12245 8.72457 1.07143 8.82661 0.969388L9.64293 0.153061C9.74498 0.0510204 9.86402 0 10.0001 0C10.1361 0 10.2552 0.0510204 10.3572 0.153061L11.1735 0.969388C11.2756 1.07143 11.3946 1.12245 11.5307 1.12245C11.6667 1.12245 11.7858 1.07143 11.8878 0.969388L12.7042 0.153061C12.8062 0.0510204 12.9252 0 13.0613 0C13.1974 0 13.3164 0.0510204 13.4184 0.153061L14.2348 0.969388C14.3368 1.07143 14.4559 1.12245 14.5919 1.12245C14.728 1.12245 14.847 1.07143 14.9491 0.969388L15.7654 0.153061C15.8674 0.0510204 15.9865 0 16.1225 0C16.2586 0 16.3776 0.0510204 16.4797 0.153061L17.296 0.969388C17.398 1.07143 17.5171 1.12245 17.6531 1.12245C17.7892 1.12245 17.9082 1.07143 18.0103 0.969388L18.7501 0.229592C18.8351 0.144558 18.9286 0.123299 19.0307 0.165816C19.1327 0.208333 19.1838 0.289116 19.1838 0.408163V19.5918C19.1838 19.7109 19.1327 19.7917 19.0307 19.8342C18.9286 19.8767 18.8351 19.8554 18.7501 19.7704L18.0103 19.0306C17.9082 18.9286 17.7892 18.8775 17.6531 18.8775C17.5171 18.8775 17.398 18.9286 17.296 19.0306L16.4797 19.8469C16.3776 19.949 16.2586 20 16.1225 20C15.9865 20 15.8674 19.949 15.7654 19.8469L14.9491 19.0306C14.847 18.9286 14.728 18.8775 14.5919 18.8775C14.4559 18.8775 14.3368 18.9286 14.2348 19.0306L13.4184 19.8469C13.3164 19.949 13.1974 20 13.0613 20C12.9252 20 12.8062 19.949 12.7042 19.8469L11.8878 19.0306C11.7858 18.9286 11.6667 18.8775 11.5307 18.8775C11.3946 18.8775 11.2756 18.9286 11.1735 19.0306L10.3572 19.8469C10.2552 19.949 10.1361 20 10.0001 20C9.86402 20 9.74498 19.949 9.64293 19.8469L8.82661 19.0306C8.72457 18.9286 8.60552 18.8775 8.46947 18.8775C8.33341 18.8775 8.21436 18.9286 8.11232 19.0306L7.296 19.8469C7.19396 19.949 7.07491 20 6.93885 20C6.8028 20 6.68375 19.949 6.58171 19.8469L5.76539 19.0306C5.66334 18.9286 5.5443 18.8775 5.40824 18.8775C5.27219 18.8775 5.15314 18.9286 5.0511 19.0306L4.23477 19.8469C4.13273 19.949 4.01368 20 3.87763 20C3.74158 20 3.62253 19.949 3.52049 19.8469L2.70416 19.0306C2.60212 18.9286 2.48307 18.8775 2.34702 18.8775C2.21096 18.8775 2.09192 18.9286 1.98988 19.0306L1.25008 19.7704C1.16505 19.8554 1.07151 19.8767 0.969467 19.8342C0.867427 19.7917 0.816406 19.7109 0.816406 19.5918ZM4.89804 15.102H15.1021C15.3912 15.102 15.6336 15.0043 15.8292 14.8087C16.0247 14.6131 16.1225 14.3707 16.1225 14.0816C16.1225 13.7925 16.0247 13.5502 15.8292 13.3546C15.6336 13.159 15.3912 13.0612 15.1021 13.0612H4.89804C4.60892 13.0612 4.36658 13.159 4.171 13.3546C3.97542 13.5502 3.87763 13.7925 3.87763 14.0816C3.87763 14.3707 3.97542 14.6131 4.171 14.8087C4.36658 15.0043 4.60892 15.102 4.89804 15.102ZM4.89804 11.0204H15.1021C15.3912 11.0204 15.6336 10.9226 15.8292 10.727C16.0247 10.5315 16.1225 10.2891 16.1225 10C16.1225 9.71088 16.0247 9.46854 15.8292 9.27296C15.6336 9.07738 15.3912 8.97959 15.1021 8.97959H4.89804C4.60892 8.97959 4.36658 9.07738 4.171 9.27296C3.97542 9.46854 3.87763 9.71088 3.87763 10C3.87763 10.2891 3.97542 10.5315 4.171 10.727C4.36658 10.9226 4.60892 11.0204 4.89804 11.0204ZM4.89804 6.93877H15.1021C15.3912 6.93877 15.6336 6.84099 15.8292 6.64541C16.0247 6.44983 16.1225 6.20748 16.1225 5.91837C16.1225 5.62925 16.0247 5.3869 15.8292 5.19133C15.6336 4.99575 15.3912 4.89796 15.1021 4.89796H4.89804C4.60892 4.89796 4.36658 4.99575 4.171 5.19133C3.97542 5.3869 3.87763 5.62925 3.87763 5.91837C3.87763 6.20748 3.97542 6.44983 4.171 6.64541C4.36658 6.84099 4.60892 6.93877 4.89804 6.93877ZM2.85722 17.2449H17.1429V2.7551H2.85722V17.2449Z" fill="#404040"/>
</svg>
